# xmcd CD database file
#
# Track frame offsets:
#	150
#	13838
#	29660
#	41658
#	58343
#	71360
#	86680
#	99633
#	113955
#	125683
#	140615
#	153988
#	171088
#	183313
#	196813
#	210788
#	227067
#	238464
#	250352
#	262317
#	276637
#	289832
#	302887
#	311744
#
# Disc length: 4342 seconds
#
# Revision: 0
# Processed by: cddbd v1.5.1PL0 Copyright (c) Steve Scherf et al.
# Submitted via: CDex 1.51
#
DISCID=7810f418
DTITLE=Frank Sinatra - In The Wee Small Hours - Songs For Young Lovers
DYEAR=1900
DGENRE=Jazz
TTITLE0=In The Wee Small Hours Of The Morning
TTITLE1=Mood Indigo
TTITLE2=Glad To Be Unhappy
TTITLE3=I Get Along Without You Very Well
TTITLE4=Deep In A Dream
TTITLE5=I See Your Face Before Me
TTITLE6=Can't We Be Friends?
TTITLE7=When Your Lover Has Gone
TTITLE8=What Is This Thing Called Love
TTITLE9=Last Night When We Were Young
TTITLE10=I'll Be Around
TTITLE11=Ill Wind
TTITLE12=It Never Entered My Mind
TTITLE13=Dancing On The Ceiling
TTITLE14=I'll Never Be The Same
TTITLE15=This Love Of Mine
TTITLE16=My Funny Valentine
TTITLE17=The Girl Next Door
TTITLE18=A Foggy Day
TTITLE19=Like Someone In Love
TTITLE20=I Get A Kick Out Of You
TTITLE21=Little Girl Blue
TTITLE22=They Can't Take That Away From Me
TTITLE23=Violets For Your Furs
EXTD=
EXTT0=Written by D. Mann and B. Hilliard\nRecorded on February 17, 1955
EXTT1=16, 1955
EXTT2=Written by R. Rodgers and L. Hart\nRecorded on February 8, 1955
EXTT3=Written by H. Carmichael\nRecorded on February 17, 1955
EXTT4=Written by J. Van Heusen and E. De Lange\nRecorded on March 4, 1955
EXTT5=Written by A. Schwartz and H. Dietz\nRecorded on February 16, 1955
EXTT6=Written by K. Swift and P. James\nRecorded on February 8, 1955
EXTT7=Written by E. A. Swan\nRecorded on February 17, 1955
EXTT8=Written by C. Porter\nRecorded on February 16, 1955
EXTT9=Written by H. Arlen and E. Y. Harburg\nRecorded on March 1, 1954
EXTT10=Written by A. Wilder\nRecorded on February 8, 1955
EXTT11=Written by H. Arlen and T. Koehler\nRecorded on February 16, 1955
EXTT12=Written by R. Rodgers and L. Hart\nRecorded on March 4, 1955
EXTT13=Written by R. Rodgers and L. Hart\nRecorded on February 8, 1955
EXTT14=Written by Malneck, Signorelli and Kahn\nRecorded on March 4, 1955
EXTT15=5
EXTT16=
EXTT17=
EXTT18=
EXTT19=
EXTT20=
EXTT21=
EXTT22=
EXTT23=
PLAYORDER=
